<svg xmlns="http://www.w3.org/2000/svg" width="100%" height="100%" viewBox="0 0 95 95" fill="none">
<path fill="#5b8e8b" d="M36.029 2.93826C37.2936 0.833028 40.1156 0.309736 42.051 1.8216C43.6701 3.08648 45.9765 2.95329 47.4392 1.51045C49.1877 -0.214148 52.0512 -0.0191827 53.5498 1.92648C54.8035 3.55428 57.0705 3.99885 58.8462 2.96511C60.9685 1.72952 63.6936 2.63049 64.6612 4.8877C65.4707 6.77615 67.556 7.77053 69.5329 7.21086C71.8959 6.5419 74.3113 8.09227 74.6872 10.5192C75.0016 12.5496 76.7741 14.0314 78.8281 13.9809C81.2832 13.9206 83.2372 16.023 82.9977 18.4671C82.7973 20.512 84.1455 22.3879 86.1476 22.8499C88.5405 23.4021 89.9103 25.9243 89.0705 28.2321C88.3678 30.1629 89.2072 32.3152 91.0315 33.2605C93.212 34.3904 93.9114 37.1741 92.524 39.2005C91.3633 40.8959 91.6411 43.1893 93.1729 44.5586C95.0039 46.1953 94.9891 49.0655 93.1414 50.6832C91.5955 52.0367 91.2942 54.3271 92.4374 56.0344C93.8038 58.075 93.0757 60.8513 90.8837 61.9587C89.0498 62.8852 88.1883 65.0287 88.871 66.9666C89.687 69.283 88.2914 71.791 85.8929 72.3185C83.8862 72.7598 82.5187 74.6218 82.698 76.6685C82.9123 79.115 80.9368 81.1972 78.4824 81.1116C76.429 81.04 74.6414 82.5034 74.3061 84.5305C73.9053 86.9534 71.474 88.4788 69.1181 87.7856C67.147 87.2056 65.0516 88.1784 64.2227 90.0584C63.2319 92.3056 60.4977 93.1784 58.3881 91.921C56.6232 90.8691 54.3517 91.2903 53.0813 92.9051C51.5628 94.8352 48.6974 95.0007 46.9669 93.2582C45.519 91.8003 43.2141 91.6434 41.5821 92.8915C39.6313 94.3834 36.8147 93.8311 35.5719 91.7129C34.532 89.9408 32.3386 89.2156 30.4474 90.0187C28.1869 90.9785 25.5962 89.7431 24.9192 87.3824C24.3527 85.4074 22.4085 84.1595 20.377 84.467C17.9488 84.8345 15.7468 82.9937 15.6781 80.5388C15.6206 78.4849 14.0478 76.7927 12.0037 76.5853C9.56038 76.3375 7.88532 74.0068 8.42927 71.6119C8.88436 69.6083 7.78186 67.5782 5.85351 66.8689C3.5486 66.0212 2.50577 63.3472 3.62822 61.1628C4.56729 59.3354 4.00429 57.0948 2.31291 55.9283C0.291235 54.534 -0.0538249 51.6846 1.57658 49.8481C2.94062 48.3115 2.95252 46.0014 1.60437 44.4509C-0.00703717 42.5976 0.367345 39.7519 2.40327 38.3785C4.10658 37.2295 4.69261 34.9949 3.77241 33.1578C2.67252 30.962 3.74283 28.2989 6.05634 27.4749C7.99189 26.7856 9.11525 24.7669 8.68081 22.7587C8.16155 20.3584 9.86052 18.0451 12.3063 17.8224C14.3524 17.636 15.9425 15.9601 16.0212 13.907C16.1151 11.4529 18.336 9.63483 20.7603 10.0273C22.7886 10.3557 24.7455 9.12792 25.3322 7.15884C26.0335 4.80525 28.6368 3.59658 30.8873 4.57966C32.7702 5.40212 34.9709 4.69956 36.029 2.93826Z"></path>
</svg>