<svg width="94" height="95" viewBox="0 0 94 95" fill="none" xmlns="http://www.w3.org/2000/svg">
<g clip-path="url(#clip0_1_2)">
<path d="M35.4836 2.60567C36.7483 0.500434 39.5703 -0.0228568 41.5056 1.48901C43.1248 2.75388 45.4311 2.6207 46.8939 1.17785C48.6424 -0.546741 51.5059 -0.351775 53.0044 1.59389C54.2582 3.22169 56.5252 3.66626 58.3008 2.63252C60.4232 1.39693 63.1483 2.2979 64.1159 4.55511C64.9254 6.44356 67.0107 7.43794 68.9876 6.87827C71.3506 6.20931 73.766 7.75968 74.1419 10.1866C74.4563 12.217 76.2287 13.6988 78.2828 13.6483C80.7379 13.588 82.6918 15.6904 82.4523 18.1345C82.252 20.1794 83.6002 22.0553 85.6022 22.5173C87.9952 23.0695 89.365 25.5917 88.5252 27.8995C87.8225 29.8303 88.6619 31.9826 90.4862 32.9279C92.6666 34.0578 93.3661 36.8415 91.9787 38.8679C90.818 40.5633 91.0958 42.8567 92.6276 44.226C94.4586 45.8627 94.4438 48.7329 92.5961 50.3506C91.0502 51.7041 90.7489 53.9945 91.8921 55.7018C93.2585 57.7424 92.5304 60.5187 90.3384 61.6261C88.5045 62.5526 87.643 64.6961 88.3257 66.634C89.1417 68.9504 87.7461 71.4584 85.3475 71.9859C83.3409 72.4272 81.9734 74.2892 82.1527 76.336C82.367 78.7824 80.3915 80.8646 77.9371 80.779C75.8837 80.7074 74.0961 82.1708 73.7608 84.1979C73.36 86.6208 70.9287 88.1462 68.5727 87.453C66.6017 86.873 64.5063 87.8458 63.6774 89.7258C62.6866 91.973 59.9524 92.8458 57.8428 91.5884C56.0779 90.5365 53.8064 90.9577 52.536 92.5725C51.0175 94.5026 48.1521 94.6681 46.4215 92.9256C44.9737 91.4677 42.6688 91.3108 41.0367 92.559C39.0859 94.0508 36.2694 93.4985 35.0266 91.3803C33.9867 89.6083 31.7933 88.8831 29.9021 89.6861C27.6416 90.6459 25.0509 89.4105 24.3738 87.0498C23.8074 85.0748 21.8632 83.8269 19.8317 84.1344C17.4035 84.5019 15.2015 82.6611 15.1328 80.2062C15.0753 78.1523 13.5025 76.4601 11.4584 76.2528C9.01506 76.0049 7.34 73.6742 7.88396 71.2793C8.33905 69.2757 7.23654 67.2456 5.30819 66.5363C3.00328 65.6886 1.96046 63.0146 3.0829 60.8302C4.02197 59.0028 3.45898 56.7622 1.76759 55.5957C-0.25408 54.2014 -0.59914 51.352 1.03126 49.5155C2.39531 47.9789 2.4072 45.6688 1.05905 44.1183C-0.552352 42.265 -0.17797 39.4193 1.85795 38.0459C3.56126 36.8969 4.1473 34.6623 3.2271 32.8252C2.1272 30.6294 3.19751 27.9663 5.51102 27.1423C7.44658 26.453 8.56993 24.4343 8.1355 22.4261C7.61623 20.0258 9.3152 17.7125 11.7609 17.4898C13.8071 17.3034 15.3972 15.6275 15.4758 13.5744C15.5698 11.1203 17.7907 9.30224 20.215 9.69475C22.2432 10.0231 24.2001 8.79533 24.7869 6.82625C25.4882 4.47266 28.0915 3.26399 30.342 4.24706C32.2249 5.06953 34.4256 4.36696 35.4836 2.60567Z" fill="black" fill-opacity="0.3"/>
<path d="M46.4551 55.6672C58.6054 55.6672 68.4551 45.8175 68.4551 33.6672C68.4551 21.5169 58.6054 11.6672 46.4551 11.6672C34.3048 11.6672 24.4551 21.5169 24.4551 33.6672C24.4551 45.8175 34.3048 55.6672 46.4551 55.6672Z" fill="black" fill-opacity="0.35"/>
<path fill-rule="evenodd" clip-rule="evenodd" d="M80.6377 79.8826C79.9043 80.4719 78.9629 80.8147 77.9375 80.7788C75.8838 80.7073 74.0967 82.1707 73.7607 84.1978C73.3604 86.6207 70.9287 88.1461 68.5732 87.4529C66.6025 86.8729 64.5068 87.8457 63.6777 89.7257C62.6865 91.9729 59.9531 92.8457 57.8428 91.5884C56.0781 90.5364 53.8066 90.9575 52.5361 92.5724C51.0176 94.5026 48.1523 94.668 46.4219 92.9254C44.9736 91.4677 42.6689 91.3107 41.0371 92.5588C39.0859 94.0507 36.2695 93.4984 35.0273 91.3802C33.9873 89.6082 31.7939 88.8829 29.9023 89.686C27.6416 90.6459 25.0518 89.4104 24.374 87.0497C23.8076 85.0747 21.8633 83.8269 19.832 84.1343C17.4043 84.5017 15.2021 82.6609 15.1328 80.2061C15.1025 79.1133 14.6436 78.1228 13.9121 77.4041C21.1689 67.2705 33.04 60.6672 46.4551 60.6672C60.9346 60.6672 73.6172 68.3606 80.6377 79.8826Z" fill="black" fill-opacity="0.35"/>
</g>
<defs>
<clipPath id="clip0_1_2">
<rect width="94" height="95" fill="white"/>
</clipPath>
</defs>
</svg>
