<svg width="37" height="37" viewBox="0 0 37 37" fill="none" xmlns="http://www.w3.org/2000/svg">
<path d="M13.9063 2.08256C14.4554 0.858692 16.0586 0.561403 17.01 1.50704C18.1066 2.59703 19.8628 2.64287 21.0148 1.61156C22.0142 0.716835 23.5997 1.09735 24.0842 2.34819C24.6427 3.78996 26.2285 4.54618 27.7003 4.07257C28.9772 3.66169 30.2709 4.65421 30.2047 5.99396C30.1285 7.53822 31.2696 8.87408 32.8068 9.04006C34.1405 9.18406 34.9186 10.617 34.3132 11.814C33.6155 13.1937 34.1146 14.8782 35.4514 15.6551C36.6112 16.3291 36.7392 17.9546 35.6993 18.8019C34.5007 19.7786 34.2715 21.5204 35.1768 22.7739C35.9621 23.8613 35.418 25.3984 34.1233 25.7495C32.6311 26.1542 31.7132 27.6522 32.0304 29.1655C32.3056 30.4784 31.1833 31.6612 29.8578 31.4554C28.3299 31.2181 26.8821 32.2134 26.5564 33.7248C26.2738 35.0361 24.7673 35.6602 23.6402 34.933C22.3409 34.0949 20.6135 34.4152 19.7011 35.6634C18.9096 36.7464 17.2796 36.7039 16.5456 35.5811C15.6996 34.2869 13.9913 33.8769 12.6501 34.6462C11.4865 35.3136 10.0147 34.6117 9.80086 33.2875C9.55438 31.7611 8.16045 30.6917 6.62233 30.849C5.2879 30.9854 4.22881 29.7456 4.57208 28.4489C4.96775 26.9542 4.1293 25.4103 2.66019 24.9283C1.38564 24.5102 0.922394 22.9468 1.76341 21.9018C2.7328 20.6973 2.59481 18.9459 1.44874 17.908C0.454449 17.0076 0.667141 15.391 1.86049 14.7784C3.23599 14.0723 3.82231 12.4162 3.19745 11.0019C2.65534 9.77494 3.50719 8.38457 4.84652 8.31033C6.39029 8.22476 7.59955 6.95025 7.60394 5.40411C7.60775 4.06273 8.95147 3.13904 10.2052 3.61598C11.6503 4.16571 13.2734 3.49324 13.9063 2.08256Z" fill="#8000FF" stroke="#4D0C8D"/>
</svg>
